<svg aria-hidden="true" style="position: absolute; width: 0; height: 0; overflow: hidden;" version="1.1" xmlns="http://www.w3.org/2000/svg" xmlns:xlink="http://www.w3.org/1999/xlink">
<defs>
<symbol id="icon-menu" viewBox="0 0 40 40">
<title>menu</title>
<path d="M32.8 18h-25.6c-1.104 0-1.2 0.894-1.2 2s0.096 2 1.2 2h25.6c1.104 0 1.2-0.894 1.2-2s-0.096-2-1.2-2zM32.8 26h-25.6c-1.104 0-1.2 0.894-1.2 2s0.096 2 1.2 2h25.6c1.104 0 1.2-0.894 1.2-2s-0.096-2-1.2-2zM7.2 14h25.6c1.104 0 1.2-0.894 1.2-2s-0.096-2-1.2-2h-25.6c-1.104 0-1.2 0.894-1.2 2s0.096 2 1.2 2z"></path>
</symbol>
</defs>
</svg>
